<svg viewBox="0 0 200 200" fill="none" xmlns="http://www.w3.org/2000/svg">
  <g clip-path="url(#clip0_16_5107)">
    <mask id="mask0_16_5107" style="mask-type:alpha" maskUnits="userSpaceOnUse" x="3" y="32" width="193" height="136">
      <path
        d="M168 100C168 137.555 137.555 168 100 168C62.4446 168 32 137.555 32 100C32 62.4446 62.4446 32 100 32C137.555 32 168 62.4446 168 100ZM38.0032 100C38.0032 134.24 65.7601 161.997 100 161.997C134.24 161.997 161.997 134.24 161.997 100C161.997 65.7601 134.24 38.0032 100 38.0032C65.7601 38.0032 38.0032 65.7601 38.0032 100Z"
        fill="white" />
      <path
        d="M28.4936 155.095C20.2853 155.538 14.4585 154.489 10.8978 152.457C9.16005 151.466 8.00683 150.268 7.31585 148.918C6.62441 147.567 6.30933 145.895 6.52238 143.815C6.959 139.553 9.57285 134.032 14.5696 127.549C19.5218 121.124 26.6273 113.994 35.6488 106.537"
        stroke="white" stroke-width="5" stroke-linejoin="round" />
      <path d="M141.838 50.1812C147.708 48.4648 153.257 47.1208 158.399 46.1663" stroke="white" stroke-width="5" />
      <path
        d="M171.571 44.5308C179.229 44.1451 184.808 45.0704 188.374 46.8997C191.756 48.6341 193.328 51.149 193.338 54.5518C193.347 58.2285 191.523 63.0862 187.52 68.9383C183.557 74.7325 177.638 81.2391 169.907 88.154C154.447 101.981 133.06 116.262 109.814 128.239C86.5631 140.218 63.2099 148.985 44.2272 152.917"
        stroke="white" stroke-width="5" />
      <path
        d="M28.2456 146.89C23.3354 146.99 20.2881 146.196 18.6852 145.058C17.9413 144.529 17.522 143.94 17.3064 143.286C17.0822 142.606 17.0196 141.673 17.3055 140.399C17.8942 137.777 19.8334 134.273 23.3576 130.009C26.8403 125.796 31.7042 121.037 37.8454 115.908"
        stroke="white" stroke-width="5" />
      <path d="M147.873 57.3268C151.636 56.2307 155.182 55.3303 158.477 54.6318" stroke="white" stroke-width="5" />
      <path
        d="M171.761 52.8683C177.238 52.7327 180.39 53.6965 181.868 54.9783C182.533 55.5546 182.902 56.2268 183.029 57.0721C183.165 57.973 183.044 59.2102 182.439 60.8515C181.213 64.1772 178.272 68.4464 173.555 73.4433C168.878 78.3983 162.608 83.9101 154.947 89.7326C139.625 101.377 119.922 113.366 99.466 123.476C78.9975 133.592 59.2611 141.091 43.8922 144.64"
        stroke="white" stroke-width="5" />
      <path d="M42 142.521L46 141.56V155.105L42 156V142.521Z" fill="white" />
      <path d="M155 44.2852L159 43.5V57.0898L155 58V44.2852Z" fill="white" />
      <path
        d="M36.1774 149.156C37.2351 148.268 38.812 148.406 39.6995 149.464V149.464C40.587 150.522 40.449 152.099 39.3914 152.986L28.1291 162.436C27.0714 163.324 25.4945 163.186 24.607 162.128V162.128C23.7195 161.07 23.8574 159.494 24.9151 158.606L36.1774 149.156Z"
        fill="white" />
      <path
        d="M24.8579 142.389C23.8318 141.465 23.7489 139.884 24.6728 138.858V138.858C25.5967 137.832 27.1774 137.749 28.2035 138.673L39.6515 148.981C40.6776 149.905 40.7604 151.485 39.8366 152.511V152.511C38.9127 153.537 37.3319 153.62 36.3059 152.696L24.8579 142.389Z"
        fill="white" />
      <rect x="24.03" y="140.5" width="4" height="7" fill="white" />
      <rect x="24.02" y="153.5" width="3" height="7" fill="white" />
      <path
        d="M164.517 50.059C163.475 50.9648 161.896 50.8544 160.99 49.8124V49.8124C160.085 48.7703 160.195 47.1913 161.237 46.2855L172.333 36.6402C173.375 35.7343 174.954 35.8447 175.86 36.8868V36.8868C176.765 37.9288 176.655 39.5079 175.613 40.4137L164.517 50.059Z"
        fill="white" />
      <path
        d="M175.793 56.6822C176.835 57.5881 176.946 59.1671 176.04 60.2092V60.2092C175.134 61.2512 173.555 61.3616 172.513 60.4558L160.887 50.3493C159.845 49.4435 159.734 47.8644 160.64 46.8224V46.8224C161.546 45.7804 163.125 45.67 164.167 46.5758L175.793 56.6822Z"
        fill="white" />
      <rect x="176.65" y="58.8" width="3.72071" height="7.78523" transform="rotate(179 176.65 58.8)" fill="white" />
      <rect x="176.597" y="45.5" width="3" height="7" transform="rotate(179 176.597 45.5)" fill="white" />
      <path d="M139.533 48.9745C132.409 55.5171 124.065 62.0429 114.844 68.2744" stroke="white" stroke-width="4"
        stroke-linecap="round" />
      <path d="M118.418 151.089C110.26 155.735 101.831 159.991 93.3656 163.736" stroke="white" stroke-width="4"
        stroke-linecap="round" />
      <path d="M114.418 146.089C104.112 151.959 93.3892 157.195 82.7276 161.565" stroke="white" stroke-width="4"
        stroke-linecap="round" />
      <path d="M133.176 43.9779C126.765 49.5686 119.505 55.1093 111.617 60.4278" stroke="white" stroke-width="4"
        stroke-linecap="round" />
      <path d="M69.9297 118.198C61.0867 122.352 52.2224 125.939 43.6096 128.85" stroke="white" stroke-width="4"
        stroke-linecap="round" />
      <path d="M83.5759 111.325C80.9588 112.734 78.3192 114.101 75.6645 115.424" stroke="white" stroke-width="4"
        stroke-linecap="round" />
      <path d="M56.6112 116.362C50.7089 118.865 44.8481 121.094 39.1096 123.019" stroke="white" stroke-width="4"
        stroke-linecap="round" />
      <path d="M79.5759 105.325C75.0613 107.755 70.4826 110.061 65.8783 112.223" stroke="white" stroke-width="4"
        stroke-linecap="round" />
    </mask>
    <g mask="url(#mask0_16_5107)">
      <rect width="200" height="200" fill="url(#paint0_linear_16_5107)" />
    </g>
  </g>
  <defs>
    <linearGradient id="paint0_linear_16_5107" x1="48" y1="15.5" x2="166" y2="200" gradientUnits="userSpaceOnUse">
      <stop stop-color="#52FF00" />
      <stop offset="0.681477" stop-color="#24D490" stop-opacity="0.723921" />
      <stop offset="1" stop-color="#00B3FF" stop-opacity="0.51" />
    </linearGradient>
    <clipPath id="clip0_16_5107">
      <rect width="200" height="200" fill="white" />
    </clipPath>
  </defs>
</svg>