<svg viewBox="0 0 669 150" fill="none" xmlns="http://www.w3.org/2000/svg">
  <path
    d="M47.1467 18.8144C48.6578 14.6626 53.2485 12.5219 57.4004 14.0331V14.0331C61.5522 15.5442 63.6929 20.1349 62.1817 24.2868L19.7712 140.809C18.2601 144.96 13.6694 147.101 9.51753 145.59V145.59C5.36571 144.079 3.22501 139.488 4.73615 135.336L47.1467 18.8144Z"
    fill="currentColor" />
  <path
    d="M66.6821 78.0764C65.1709 73.9245 67.3116 69.3338 71.4634 67.8226V67.8226C75.6153 66.3115 80.206 68.4522 81.7171 72.604L104.55 135.336C106.061 139.488 103.92 144.079 99.7684 145.59V145.59C95.6166 147.101 91.0259 144.96 89.5147 140.809L66.6821 78.0764Z"
    fill="currentColor" />
  <circle cx="54.3681" cy="127.297" r="18" fill="currentColor" />
  <circle cx="54.3681" cy="127.297" r="8" fill="#FF355E" />
  <circle cx="54.3681" cy="22.2969" r="18" fill="currentColor" />
  <circle cx="54.3681" cy="22.2969" r="8" fill="#FFD600" />
  <circle cx="165.286" cy="127.297" r="18" fill="currentColor" />
  <circle cx="165.286" cy="127.297" r="8" fill="#66FF00" />
  <circle cx="165.286" cy="22.2969" r="18" fill="currentColor" />
  <circle cx="165.286" cy="22.2969" r="8" fill="#FF355E" />
  <path
    d="M150.286 83.2969C145.69 83.2969 141.138 82.4045 136.892 80.6707C132.646 78.9369 128.787 76.3957 125.537 73.1921C122.287 69.9884 119.709 66.1852 117.95 61.9995C116.191 57.8137 115.286 53.3275 115.286 48.7969C115.286 44.2663 116.191 39.78 117.95 35.5943C119.709 31.4086 122.287 27.6053 125.537 24.4017C128.787 21.1981 132.646 18.6568 136.892 16.923C141.138 15.1893 145.69 14.2969 150.286 14.2969L150.286 30.3033C147.822 30.3033 145.382 30.7816 143.106 31.711C140.83 32.6404 138.762 34.0026 137.019 35.7199C135.277 37.4372 133.895 39.4759 132.952 41.7197C132.01 43.9634 131.524 46.3683 131.524 48.7969C131.524 51.2255 132.01 53.6303 132.952 55.8741C133.895 58.1178 135.277 60.1566 137.019 61.8739C138.762 63.5911 140.83 64.9534 143.106 65.8828C145.382 66.8122 147.822 67.2905 150.286 67.2905L150.286 83.2969Z"
    fill="currentColor" />
  <path
    d="M181.286 67.2969C185.882 67.2969 190.434 68.1763 194.68 69.885C198.926 71.5936 202.785 74.0981 206.035 77.2553C209.285 80.4125 211.863 84.1606 213.622 88.2857C215.381 92.4107 216.286 96.832 216.286 101.297C216.286 105.762 215.381 110.183 213.622 114.308C211.863 118.433 209.285 122.181 206.035 125.339C202.785 128.496 198.926 131 194.68 132.709C190.433 134.417 185.882 135.297 181.286 135.297L181.286 119.282C183.717 119.282 186.125 118.817 188.371 117.913C190.617 117.009 192.658 115.684 194.377 114.014C196.097 112.344 197.46 110.362 198.391 108.18C199.321 105.997 199.8 103.659 199.8 101.297C199.8 98.935 199.321 96.5963 198.391 94.4143C197.46 92.2322 196.097 90.2495 194.377 88.5794C192.658 86.9094 190.617 85.5846 188.371 84.6807C186.125 83.7769 183.717 83.3117 181.286 83.3117L181.286 67.2969Z"
    fill="currentColor" />
  <rect x="149.29" y="67.2969" width="33" height="16" fill="currentColor" />
  <path
    d="M224.286 22.2969C224.286 17.8786 227.868 14.2969 232.286 14.2969H324.286C328.704 14.2969 332.286 17.8786 332.286 22.2969V22.2969C332.286 26.7152 328.704 30.2969 324.286 30.2969H232.286C227.868 30.2969 224.286 26.7152 224.286 22.2969V22.2969Z"
    fill="currentColor" />
  <circle cx="278.286" cy="22.2969" r="18" fill="currentColor" />
  <circle cx="278.286" cy="22.2969" r="8" fill="#FFD600" />
  <path
    d="M270.368 65.2969C270.368 60.8786 273.95 57.2969 278.368 57.2969V57.2969C282.786 57.2969 286.368 60.8786 286.368 65.2969V137.297C286.368 141.715 282.786 145.297 278.368 145.297V145.297C273.95 145.297 270.368 141.715 270.368 137.297V65.2969Z"
    fill="currentColor" />
  <circle cx="506.154" cy="75.2969" r="18" fill="currentColor" />
  <circle cx="506.154" cy="75.2969" r="8" fill="#FFD600" />
  <path
    d="M462.654 22.2969C462.654 17.8786 466.236 14.2969 470.654 14.2969H541.654C546.072 14.2969 549.654 17.8786 549.654 22.2969V22.2969C549.654 26.7152 546.072 30.2969 541.654 30.2969H470.654C466.236 30.2969 462.654 26.7152 462.654 22.2969V22.2969Z"
    fill="currentColor" />
  <path
    d="M462.654 127.297C462.654 122.879 466.236 119.297 470.654 119.297H541.654C546.072 119.297 549.654 122.879 549.654 127.297V127.297C549.654 131.715 546.072 135.297 541.654 135.297H470.654C466.236 135.297 462.654 131.715 462.654 127.297V127.297Z"
    fill="currentColor" />
  <circle cx="470.654" cy="22.2969" r="18" fill="currentColor" />
  <circle cx="470.654" cy="22.2969" r="8" fill="#66FF00" />
  <circle cx="541.654" cy="127.297" r="18" fill="currentColor" />
  <circle cx="541.654" cy="127.297" r="8" fill="#FF355E" />
  <path
    d="M343.056 15.2069C341.526 11.0031 343.694 6.35501 347.897 4.82498V4.82498C352.101 3.29495 356.749 5.46241 358.279 9.66613L400.042 124.408C401.572 128.612 399.405 133.26 395.201 134.79V134.79C390.997 136.32 386.349 134.153 384.819 129.949L343.056 15.2069Z"
    fill="currentColor" />
  <path
    d="M426.661 9.6115C428.191 5.40778 432.839 3.24033 437.043 4.77036V4.77036C441.246 6.30039 443.414 10.9485 441.884 15.1522L419.036 77.9264C417.506 82.1301 412.858 84.2976 408.654 82.7675V82.7675C404.45 81.2375 402.283 76.5894 403.813 72.3857L426.661 9.6115Z"
    fill="currentColor" />
  <circle cx="392.555" cy="127.297" r="18" fill="currentColor" />
  <circle cx="392.555" cy="127.297" r="8" fill="#FFD600" />
  <path
    d="M577.654 127.297C577.654 122.879 581.236 119.297 585.654 119.297H656.654C661.072 119.297 664.654 122.879 664.654 127.297V127.297C664.654 131.715 661.072 135.297 656.654 135.297H585.654C581.236 135.297 577.654 131.715 577.654 127.297V127.297Z"
    fill="currentColor" />
  <circle cx="585.654" cy="127.297" r="18" fill="currentColor" />
  <circle cx="585.654" cy="127.297" r="8" fill="#FF355E" />
  <path
    d="M577.368 12.2969C577.368 7.87861 580.95 4.29689 585.368 4.29689V4.29689C589.786 4.29689 593.368 7.87861 593.368 12.2969V85.2969C593.368 89.7152 589.786 93.2969 585.368 93.2969V93.2969C580.95 93.2969 577.368 89.7152 577.368 85.2969V12.2969Z"
    fill="currentColor" />
</svg>